<svg version="1.1" xmlns="http://www.w3.org/2000/svg" xmlns:xlink="http://www.w3.org/1999/xlink" width="95" height="40" style="" xml:space="preserve"><rect id="backgroundrect" width="100%" height="100%" x="0" y="0" fill="none" stroke="none" style="" class=""/>
















<g class="currentLayer" style=""><title>Layer 1</title><g id="svg_1" class="selected" fill="#dadada" fill-opacity="1">
	<path d="M91.12699890136719,11.201478958129883 l-8.192999839782715,16.45400047302246 l-8.213000297546387,-16.45400047302246 h-5.7230000495910645 l1.4630000591278076,2.744999885559082 c-1.9359999895095825,-2.8889999389648438 -5.75600004196167,-3.622999906539917 -9.24899959564209,-3.622999906539917 c-10.220000267028809,0 -10.87399959564209,5.5960001945495605 -10.87399959564209,6.489999771118164 h5.085999965667725 c0,0 0.2680000066757202,-3.2669999599456787 5.438000202178955,-3.2669999599456787 c3.359999895095825,0 5.965000152587891,1.5379999876022339 5.965000152587891,4.49399995803833 v1.0529999732971191 h-5.965000152587891 c-6.609000205993652,0 -10.616999626159668,1.6160000562667847 -11.760000228881836,4.886000156402588 c0.11900000274181366,-0.7239999771118164 0.18400000035762787,-1.4739999771118164 0.18400000035762787,-2.255000114440918 c0,-6.2820000648498535 -4.236000061035156,-11.335000038146973 -11.390999794006348,-11.335000038146973 c-6.698999881744385,0 -8.781000137329102,3.617000102996826 -8.781000137329102,3.617000102996826 V1.9044780731201172 h-4.910999774932861 V20.323476791381836 c-0.07199999690055847,-4.005000114440918 -2.6689999103546143,-10 -11.74899959564209,-10 C5.660999774932861,10.323476791381836 0,13.205476760864258 0,21.900476455688477 c0,6.888999938964844 3.806999921798706,11.22599983215332 12.630000114440918,11.22599983215332 c10.385000228881836,0 11.050999641418457,-6.841000080108643 11.050999641418457,-6.841000080108643 h-5.0320000648498535 c0,0 -1.0789999961853027,3.684000015258789 -6.326000213623047,3.684000015258789 c-4.2729997634887695,0 -7.3470001220703125,-2.88700008392334 -7.3470001220703125,-6.933000087738037 h19.22800064086914 v5.723999977111816 c0,1.5240000486373901 -0.10899999737739563,3.6659998893737793 -0.10899999737739563,3.6659998893737793 h4.800000190734863 c0,0 0.1720000058412552,-1.5369999408721924 0.1720000058412552,-2.941999912261963 c0,0 2.371000051498413,3.7100000381469727 8.819000244140625,3.7100000381469727 c5.499000072479248,0 9.567999839782715,-3.0940001010894775 10.916999816894531,-7.855000019073486 c-0.026000000536441803,0.25 -0.041999999433755875,0.5080000162124634 -0.041999999433755875,0.7730000019073486 c0,4.625999927520752 3.867000102996826,7.14300012588501 9.095000267028809,7.14300012588501 c7.123000144958496,0 9.416000366210938,-3.937000036239624 9.416000366210938,-3.937000036239624 c0,1.565000057220459 0.12099999934434891,3.1080000400543213 0.12099999934434891,3.1080000400543213 h4.520999908447266 c0,0 -0.17599999904632568,-1.9119999408721924 -0.17599999904632568,-3.13700008392334 V18.71647834777832 c0,-1.4140000343322754 -0.23499999940395355,-2.5969998836517334 -0.6470000147819519,-3.5899999141693115 l9.163999557495117,17.20199966430664 l-4.308000087738037,8.166000366210938 h5.438000202178955 l14.927000045776367,-29.292999267578125 H91.12699890136719 zM5.085999965667725,19.796476364135742 c0,-3.9660000801086426 3.619999885559082,-6.228000164031982 7.190999984741211,-6.228000164031982 c4.067999839782715,0 6.841000080108643,2.492000102996826 6.841000080108643,6.228000164031982 H5.085999965667725 zM36.6879997253418,29.8704776763916 c-4.921000003814697,0 -7.574999809265137,-3.8420000076293945 -7.574999809265137,-8.102999687194824 c0,-3.9679999351501465 2.381999969482422,-8.057999610900879 7.541999816894531,-8.057999610900879 c4.611000061035156,0 7.543000221252441,3.421999931335449 7.543000221252441,8.015000343322754 C44.198001861572266,26.649477005004883 40.81100082397461,29.8704776763916 36.6879997253418,29.8704776763916 zM66.8239974975586,23.654478073120117 c0,1.8300000429153442 -1.128999948501587,6.38100004196167 -7.776000022888184,6.38100004196167 c-3.6419999599456787,0 -5.202000141143799,-1.815999984741211 -5.202000141143799,-3.924999952316284 c0,-3.8350000381469727 5.257999897003174,-3.8580000400543213 12.979000091552734,-3.8580000400543213 V23.654478073120117 z" id="svg_2" fill="#dadada" fill-opacity="1"/>
</g><g id="svg_3" class="">
</g><g id="svg_4" class="">
</g><g id="svg_5" class="">
</g><g id="svg_6" class="">
</g><g id="svg_7" class="">
</g><g id="svg_8" class="">
</g><g id="svg_9" class="">
</g><g id="svg_10" class="">
</g><g id="svg_11" class="">
</g><g id="svg_12" class="">
</g><g id="svg_13" class="">
</g><g id="svg_14" class="">
</g><g id="svg_15" class="">
</g><g id="svg_16" class="">
</g><g id="svg_17" class="">
</g></g></svg>