<svg version="1.1" xmlns="http://www.w3.org/2000/svg" xmlns:xlink="http://www.w3.org/1999/xlink" style="" xml:space="preserve" width="47" height="38.47826099395752"><rect id="backgroundrect" width="100%" height="100%" x="0" y="0" fill="none" stroke="none" style="" class=""/>
















<g class="currentLayer" style=""><title>Layer 1</title><g id="XMLID_2_" class="" fill="#dadada" fill-opacity="1">
	<path id="XMLID_4_" d="M6.2152040004730225,20.943342924118042 h24.041292190551758 c1.1460025310516357,0 2.0750892162323,-0.9093087911605835 2.0750892162323,-2.0309157371520996 s-0.9290866255760193,-2.0309157371520996 -2.0750892162323,-2.0309157371520996 H6.2152040004730225 l2.6829519271850586,-2.6257030963897705 c0.8103914260864258,-0.7930049300193787 0.8103914260864258,-2.0789806842803955 0,-2.8721210956573486 c-0.810114860534668,-0.7931402921676636 -2.124061346054077,-0.7931402921676636 -2.934591054916382,0 L-0.2612874507904053,17.47602915763855 c-0.04814206436276436,0.046981848776340485 -0.09351735562086105,0.09613001346588135 -0.13667918741703033,0.1475798785686493 c-0.010513784363865852,0.012591677717864513 -0.01950583979487419,0.02613111585378647 -0.029742946848273277,0.038993582129478455 c-0.03167969360947609,0.03939977288246155 -0.06280603259801865,0.0789349302649498 -0.09130392968654633,0.12063641101121902 c-0.0083003556355834,0.012185495346784592 -0.015078981406986713,0.025047961622476578 -0.02324099652469158,0.03736885264515877 c-0.02849789336323738,0.04359699413180351 -0.05644242465496063,0.08760016411542892 -0.08162016421556473,0.13349886238574982 c-0.004841874353587627,0.00907142460346222 -0.008853713981807232,0.018684426322579384 -0.01369558833539486,0.027755850926041603 c-0.026146123185753822,0.04968974366784096 -0.051323872059583664,0.10005645453929901 -0.07331981509923935,0.15204790234565735 c-0.0027667854446917772,0.006363535765558481 -0.004703535698354244,0.013133254833519459 -0.007331980857998133,0.019632184877991676 c-0.022549303248524666,0.054699331521987915 -0.04343853518366814,0.11007564514875412 -0.06114596128463745,0.16707666218280792 c-0.002351767849177122,0.007175902836024761 -0.0035968211013823748,0.014622594229876995 -0.0056719109416007996,0.021933890879154205 c-0.016739051789045334,0.05591787397861481 -0.03209470957517624,0.1123773381114006 -0.043853551149368286,0.1701907366514206 c-0.003458481514826417,0.017195088788866997 -0.004980213940143585,0.03493174910545349 -0.008162017911672592,0.05226223170757294 c-0.008577034808695316,0.047929614782333374 -0.017154069617390633,0.09585922956466675 -0.021995943039655685,0.14473660290241241 C-0.8661067669745535,18.776764631271362 -0.8695652484893799,18.844460248947144 -0.8695652484893799,18.91243052482605 s0.003458481514826417,0.1356651782989502 0.010513784363865852,0.2028207927942276 c0.004841874353587627,0.04955434426665306 0.01369558833539486,0.09789014607667923 0.022134283557534218,0.1462259441614151 c0.0030434641521424055,0.016788901761174202 0.004565196577459574,0.0339839905500412 0.00802367739379406,0.05063750222325325 c0.011897178366780281,0.058354977518320084 0.027114497497677803,0.11535602062940598 0.04399188607931137,0.17181546986103058 c0.00207508890889585,0.006634324789047241 0.00332014262676239,0.013674832880496979 0.005395231768488884,0.02030915953218937 c0.017845764756202698,0.05727182328701019 0.03873499482870102,0.1131897121667862 0.0615609735250473,0.1684306114912033 c0.0024901069700717926,0.005957352928817272 0.004288517404347658,0.012320888228714466 0.006916963029652834,0.018278243020176888 c0.022134283557534218,0.052397627383470535 0.047450367361307144,0.10303512215614319 0.07387317717075348,0.15299566090106964 c0.004565196577459574,0.008800635114312172 0.008438696153461933,0.01800745166838169 0.013142230920493603,0.026808088645339012 c0.025454426184296608,0.04616948217153549 0.05353730171918869,0.0905788391828537 0.08245020359754562,0.1345820277929306 c0.007747000083327293,0.011914705857634544 0.014387284405529499,0.024506384506821632 0.022410964593291283,0.03615029901266098 c0.028636230155825615,0.04183686152100563 0.06003924459218979,0.08164282143115997 0.09158060699701309,0.12117797136306763 c0.010098767466843128,0.012727071531116962 0.019090818241238594,0.02613111585378647 0.029466265812516212,0.03858739882707596 c0.043300192803144455,0.051314469426870346 0.08867546916007996,0.10059802234172821 0.13667918741703033,0.1475798785686493 l6.224852561950684,6.092341423034668 C6.368621587753296,26.837874174118042 6.899706602096558,27.036091566085815 7.430791616439819,27.036091566085815 s1.0621689558029175,-0.19821737706661224 1.4672263860702515,-0.5949229598045349 c0.8103914260864258,-0.7931402921676636 0.8103914260864258,-2.0789806842803955 0,-2.8721210956573486 L6.2152040004730225,20.943342924118042 z" fill="#dadada" fill-opacity="1"/>
	<path id="XMLID_5_" d="M27.808027982711792,2.299402952194214 c-5.664163112640381,0 -10.934060096740723,2.750131130218506 -14.097186088562012,7.356383800506592 c-0.6391273736953735,0.9308363795280457 -0.3862432837486267,2.1927120685577393 0.5648393034934998,2.8183696269989014 c0.9512208700180054,0.6255220174789429 2.2404043674468994,0.37829187512397766 2.8798086643218994,-0.552815318107605 c2.3906409740448,-3.481666326522827 6.372875213623047,-5.56024169921875 10.652538299560547,-5.56024169921875 C34.87924075126648,6.361234903335571 40.63222002983093,11.991609334945679 40.63222002983093,18.91243052482605 s-5.752976894378662,12.551194190979004 -12.824188232421875,12.551194190979004 c-4.2670745849609375,0 -8.242806434631348,-2.06923246383667 -10.635246276855469,-5.535057544708252 c-0.6417559385299683,-0.9294824600219727 -1.9313547611236572,-1.1737339496612549 -2.8811919689178467,-0.5459102392196655 c-0.949560821056366,0.627959132194519 -1.1994014978408813,1.8903764486312866 -0.5577839612960815,2.81972336769104 c3.1653409004211426,4.585537433624268 8.426660537719727,7.3230767250061035 14.074222564697266,7.3230767250061035 C37.16764712333679,35.525458097457886 44.78239321708679,28.072941541671753 44.78239321708679,18.91243052482605 S37.16764712333679,2.299402952194214 27.808027982711792,2.299402952194214 z" fill="#dadada" fill-opacity="1"/>
</g><g id="svg_1" class="">
</g><g id="svg_2" class="">
</g><g id="svg_3" class="">
</g><g id="svg_4" class="">
</g><g id="svg_5" class="">
</g><g id="svg_6" class="">
</g><g id="svg_7" class="">
</g><g id="svg_8" class="">
</g><g id="svg_9" class="">
</g><g id="svg_10" class="">
</g><g id="svg_11" class="">
</g><g id="svg_12" class="">
</g><g id="svg_13" class="">
</g><g id="svg_14" class="">
</g><g id="svg_15" class="">
</g></g></svg>