<svg version="1.1" xmlns="http://www.w3.org/2000/svg" xmlns:xlink="http://www.w3.org/1999/xlink" style="enable-background:new 0 0 478.6 478.6;" xml:space="preserve" width="36" height="35"><rect id="backgroundrect" width="100%" height="100%" x="0" y="0" fill="none" stroke="none" style="" class=""/>
















<g class="currentLayer" style=""><title>Layer 1</title><g id="svg_1" class="">
	<path id="XMLID_1718_" d="M33.81265032291412,30.538704693317413 c-1.0534559488296509,-5.748857021331787 -3.801281690597534,-11.41405200958252 -10.284089088439941,-13.230738639831543 C26.04801905155182,16.035090267658234 27.720286965370178,13.77020913362503 27.720286965370178,11.182625591754913 C27.720286965370178,7.202646553516388 23.742198586463928,3.96966153383255 18.82853090763092,3.96966153383255 S9.936771988868713,7.196670353412628 9.936771988868713,11.182625591754913 c0,2.5816075801849365 1.679636001586914,4.852465629577637 4.191723346710205,6.125341892242432 c-6.482806205749512,1.8166866302490234 -9.237998962402344,7.4818806648254395 -10.284089088439941,13.230738639831543 c-0.19890427589416504,1.0696938037872314 0.839818000793457,2.03182053565979 2.173213243484497,2.03182053565979 H31.624704003334045 C32.97282946109772,32.57053071260452 34.01155245304108,31.608403027057648 33.81265032291412,30.538704693317413 zM13.288678765296936,11.182625591754913 c0,-2.4800164699554443 2.4899868965148926,-4.499885559082031 5.547219753265381,-4.499885559082031 c0.7293156981468201,0 1.3260284662246704,0.4840514361858368 1.3260284662246704,1.075669765472412 s-0.5967128276824951,1.075669765472412 -1.3260284662246704,1.075669765472412 c-1.5986011028289795,0 -2.8951621055603027,1.0517659187316895 -2.8951621055603027,2.348545551300049 c0,0.5916183590888977 -0.5967128276824951,1.075669765472412 -1.3260284662246704,1.075669765472412 C13.878023743629456,12.258292973041534 13.288678765296936,11.780217945575714 13.288678765296936,11.182625591754913 z"/>
</g><g id="svg_2" class="">
</g><g id="svg_3" class="">
</g><g id="svg_4" class="">
</g><g id="svg_5" class="">
</g><g id="svg_6" class="">
</g><g id="svg_7" class="">
</g><g id="svg_8" class="">
</g><g id="svg_9" class="">
</g><g id="svg_10" class="">
</g><g id="svg_11" class="">
</g><g id="svg_12" class="">
</g><g id="svg_13" class="">
</g><g id="svg_14" class="">
</g><g id="svg_15" class="">
</g><g id="svg_16" class="">
</g></g></svg>